<?xml version="1.0" standalone="no"?>
<!DOCTYPE svg PUBLIC "-//W3C//DTD SVG 20010904//EN"
 "http://www.w3.org/TR/2001/REC-SVG-20010904/DTD/svg10.dtd">
<svg version="1.0" xmlns="http://www.w3.org/2000/svg"
 width="744.000000pt" height="744.000000pt" viewBox="0 0 744.000000 744.000000"
 preserveAspectRatio="xMidYMid meet">
<metadata>
Created by potrace 1.11, written by Peter Selinger 2001-2013
</metadata>
<g transform="translate(0.000000,744.000000) scale(0.100000,-0.100000)"
fill="#000000" stroke="none">
<path d="M2269 7372 c-35 -37 -90 -102 -122 -145 -60 -80 -177 -293 -177 -323
0 -9 -8 -31 -19 -48 -23 -39 -69 -166 -115 -318 -32 -105 -62 -275 -81 -455
-6 -56 -9 -62 -33 -68 -36 -9 -247 -116 -316 -160 -31 -19 -73 -41 -93 -48
-30 -9 -49 -29 -93 -89 -30 -43 -65 -101 -76 -130 -48 -117 -103 -257 -132
-333 -34 -89 -63 -238 -64 -324 0 -55 32 -235 51 -282 5 -13 19 -55 31 -94 52
-162 162 -331 257 -391 85 -55 155 -83 228 -90 36 -4 65 -10 65 -15 0 -4 -11
-20 -24 -36 -30 -36 -89 -220 -111 -349 -13 -77 -16 -127 -10 -229 8 -169 22
-234 90 -443 l56 -173 -6 -132 c-11 -251 -17 -313 -46 -457 -20 -98 -47 -190
-84 -285 -60 -152 -95 -212 -133 -222 -14 -3 -29 -18 -36 -34 -12 -28 -75 -79
-99 -79 -7 0 -34 -13 -62 -28 -49 -27 -50 -28 -55 -82 -6 -68 -13 -79 -44 -73
-17 4 -42 -5 -75 -26 -75 -46 -110 -58 -299 -107 -167 -43 -428 -84 -531 -84
-27 0 -63 -3 -80 -6 l-31 -6 0 -604 0 -604 1563 1 c1482 1 1559 2 1512 18 -27
9 -67 25 -89 34 -21 9 -41 17 -43 17 -3 0 -19 6 -36 14 -18 8 -63 26 -102 41
-83 33 -214 91 -235 105 -8 6 -30 17 -48 25 -34 16 -190 107 -230 134 -13 9
-48 32 -77 51 -132 88 -316 253 -439 395 -28 32 -61 69 -72 81 -12 13 -37 43
-55 68 -18 25 -36 46 -41 46 -4 0 -8 5 -8 10 0 6 -15 32 -34 58 -66 95 -189
321 -208 385 -6 20 -17 42 -24 48 -16 13 -10 29 35 99 48 73 112 150 127 150
14 0 59 108 80 193 8 34 22 89 30 122 8 33 17 71 19 85 15 106 28 229 39 365
l12 160 45 -90 c56 -111 65 -126 112 -192 20 -29 37 -57 37 -63 0 -5 4 -10 10
-10 5 0 16 -13 25 -30 9 -16 22 -30 31 -30 8 0 19 -11 24 -24 4 -13 30 -45 57
-72 27 -27 101 -105 163 -174 191 -209 468 -480 490 -480 23 0 26 13 7 32 -8
7 -16 18 -18 24 -2 7 -72 83 -155 170 -174 183 -257 272 -305 329 -19 22 -37
42 -41 43 -5 2 -8 9 -8 16 0 6 -25 39 -56 71 -31 33 -67 78 -81 100 -14 22
-29 42 -33 45 -13 10 -120 169 -120 179 0 6 -3 11 -8 11 -7 0 -13 10 -42 66
-8 16 -17 31 -20 34 -3 3 -21 37 -39 75 -18 39 -37 78 -42 88 -21 40 -71 188
-111 330 l-43 152 0 175 c0 155 3 184 23 250 53 173 122 341 152 375 10 11 26
39 35 63 10 23 20 42 24 42 4 0 15 13 24 30 10 16 23 35 30 42 7 7 27 33 45
58 17 25 45 61 61 80 17 19 34 40 38 45 45 58 63 85 63 91 0 3 14 22 31 41 16
19 28 37 25 40 -11 12 -51 -25 -124 -115 -43 -53 -86 -103 -95 -111 -10 -7
-17 -19 -17 -25 -1 -6 -25 -37 -55 -70 -30 -32 -55 -63 -55 -69 0 -15 -41 -47
-60 -47 -10 0 -30 -10 -45 -22 -26 -20 -32 -21 -116 -11 -70 8 -104 18 -165
49 -66 34 -84 49 -129 109 -66 89 -109 173 -152 300 -61 180 -76 314 -48 435
49 206 174 548 228 622 32 44 136 118 230 165 136 69 255 121 261 116 6 -7 66
20 66 29 0 5 11 8 25 8 14 0 25 4 25 10 0 5 -13 7 -30 4 -19 -4 -30 -2 -30 5
0 6 5 11 10 11 6 0 10 6 9 13 -7 35 55 408 91 547 27 105 79 232 163 393 84
161 139 238 261 365 l89 92 -55 0 -56 0 -63 -68z"/>
<path d="M6500 7420 c14 -11 34 -20 45 -20 19 0 290 -265 443 -433 70 -77 160
-194 189 -247 69 -122 88 -156 93 -160 11 -9 47 -92 78 -180 16 -47 44 -114
61 -150 l32 -65 -3 155 c-3 143 -5 158 -26 190 -13 19 -59 94 -102 167 -109
184 -144 235 -193 280 -23 22 -85 86 -137 144 -52 57 -104 111 -115 121 -11 9
-47 42 -80 73 -33 32 -83 77 -111 101 -51 43 -52 44 -125 44 l-74 0 25 -20z"/>
<path d="M4220 6421 c0 -12 -41 -21 -110 -23 -30 0 -68 -7 -85 -14 -27 -12
-24 -13 35 -7 94 10 230 7 243 -6 6 -6 16 -7 27 -1 9 5 22 5 31 -1 7 -5 26 -9
41 -9 15 0 30 -4 33 -10 3 -5 16 -10 29 -10 12 0 27 -5 34 -12 6 -6 15 -9 18
-5 4 4 -4 15 -17 26 -13 11 -18 20 -11 21 6 0 12 4 12 8 0 11 -80 36 -88 28
-3 -3 -10 -2 -16 3 -14 12 -83 18 -92 8 -11 -11 -44 -8 -44 3 0 6 -9 10 -20
10 -11 0 -20 -4 -20 -9z"/>
<path d="M4555 6350 c27 -12 35 -12 35 0 0 6 -12 10 -27 9 -25 0 -26 -1 -8 -9z"/>
<path d="M4600 6330 c0 -5 12 -10 28 -10 21 0 24 2 12 10 -20 13 -40 13 -40 0z"/>
<path d="M3705 6300 l-30 -8 37 -1 c20 0 40 4 43 9 7 11 -6 11 -50 0z"/>
<path d="M4678 6303 c7 -3 16 -2 19 1 4 3 -2 6 -13 5 -11 0 -14 -3 -6 -6z"/>
<path d="M4290 6254 l-165 -33 -120 15 c-200 26 -227 28 -305 28 -41 0 -110
-3 -152 -8 -72 -7 -77 -9 -61 -24 11 -12 18 -13 20 -5 3 9 11 9 31 2 33 -13
76 -17 322 -29 107 -5 204 -11 215 -13 11 -2 58 -7 103 -12 55 -5 85 -12 89
-21 3 -8 14 -14 24 -14 11 0 37 -11 59 -25 22 -14 47 -25 57 -25 13 0 11 5
-10 28 -15 16 -25 31 -22 34 4 3 -14 14 -39 23 -45 17 -61 35 -31 35 31 0 176
53 172 63 -6 18 -16 17 -187 -19z"/>
<path d="M4545 6183 c-38 -13 -87 -30 -108 -36 -47 -14 -42 -32 9 -31 63 3
304 58 304 70 0 33 -112 31 -205 -3z"/>
<path d="M4445 6090 c-3 -5 3 -10 14 -10 19 0 26 -13 22 -45 0 -6 19 -23 44
-38 25 -16 45 -32 45 -36 0 -4 24 -33 53 -64 68 -73 97 -111 132 -172 16 -27
39 -59 52 -70 13 -11 23 -26 23 -33 0 -8 11 -28 25 -46 14 -18 25 -40 25 -50
0 -9 12 -21 28 -27 15 -6 45 -20 67 -32 30 -15 64 -21 133 -23 58 -2 90 0 87
6 -4 6 -1 10 4 10 6 0 11 -5 11 -11 0 -25 37 38 44 73 6 31 3 39 -14 48 -11 6
-23 23 -26 38 -11 45 -54 123 -82 150 -15 14 -21 22 -14 18 18 -11 15 9 -5 32
-20 22 -134 41 -258 43 l-70 1 77 14 c93 17 131 31 123 44 -8 14 -92 12 -195
-4 -80 -13 -110 -9 -110 14 0 4 42 10 93 14 128 10 161 18 165 40 4 18 -3 19
-159 12 -155 -6 -165 -5 -176 13 -14 22 -14 22 112 41 86 13 105 19 105 31 0
13 -150 11 -225 -3 -59 -10 -65 -10 -90 10 -30 24 -50 28 -60 12z m385 -300
c0 -5 -6 -10 -14 -10 -8 0 -18 5 -21 10 -3 6 3 10 14 10 12 0 21 -4 21 -10z
m260 0 c0 -13 -180 -13 -200 0 -10 7 19 10 93 10 65 0 107 -4 107 -10z m-90
-80 c0 -12 -57 -12 -85 0 -15 6 -6 9 33 9 28 1 52 -3 52 -9z m106 1 c-5 -8
-56 -3 -56 5 0 2 14 4 31 4 16 0 28 -4 25 -9z"/>
<path d="M1900 6031 c0 -5 9 -7 20 -4 11 3 20 7 20 9 0 2 -9 4 -20 4 -11 0
-20 -4 -20 -9z"/>
<path d="M4980 6006 c0 -9 -1 -19 -2 -23 -2 -3 7 -8 20 -9 12 -2 22 1 22 6 0
6 -7 10 -16 10 -8 0 -13 4 -9 9 3 5 1 12 -5 16 -5 3 -10 -1 -10 -9z"/>
<path d="M5013 5939 c9 -6 15 -14 12 -19 -3 -4 2 -10 10 -14 8 -3 15 -1 15 4
0 13 -29 40 -43 40 -7 0 -4 -5 6 -11z"/>
<path d="M2120 5902 c0 -31 41 -145 62 -175 21 -30 35 -30 23 0 -4 10 -9 29
-10 43 -1 14 -10 43 -20 65 -10 22 -19 42 -20 45 -15 42 -35 54 -35 22z"/>
<path d="M5042 5879 c2 -7 10 -15 17 -17 8 -3 12 1 9 9 -2 7 -10 15 -17 17 -8
3 -12 -1 -9 -9z"/>
<path d="M1824 5756 c10 -66 2 -88 -30 -76 -14 6 -79 10 -145 10 -96 0 -119
-3 -119 -14 0 -8 -6 -16 -12 -19 -7 -2 -3 -2 9 -1 12 2 24 0 27 -4 3 -5 62
-12 132 -16 70 -3 130 -9 135 -12 5 -3 8 -89 7 -192 0 -144 -6 -220 -24 -332
-30 -190 -34 -201 -73 -225 -115 -71 -126 -80 -134 -115 -4 -19 -20 -73 -34
-120 -14 -47 -27 -91 -29 -97 -2 -7 -17 -13 -33 -13 -35 0 -48 -15 -31 -35 19
-22 64 -18 88 8 12 13 22 27 22 32 0 5 11 25 25 44 16 24 26 56 30 96 11 102
22 117 125 165 50 24 70 59 86 154 27 152 46 415 40 531 -9 151 -17 259 -19
261 -1 1 -13 5 -26 9 -23 7 -23 6 -17 -39z"/>
<path d="M1386 5540 c-27 -41 -34 -70 -16 -70 5 0 15 10 21 23 7 12 20 28 31
35 21 16 24 38 4 45 -9 4 -24 -9 -40 -33z"/>
<path d="M1741 5471 c-10 -6 -9 -12 4 -25 18 -18 36 -17 42 1 6 16 -30 34 -46
24z"/>
<path d="M1506 5444 c-12 -30 -4 -129 13 -179 16 -45 22 -51 67 -67 67 -25
134 -10 134 30 0 12 -8 13 -41 8 -69 -11 -110 25 -124 111 -18 102 -34 135
-49 97z"/>
<path d="M3403 5338 c-11 -13 -24 -36 -27 -53 -4 -16 -13 -33 -19 -37 -17 -10
-15 -227 2 -308 21 -100 80 -216 142 -281 54 -56 165 -146 206 -168 30 -15
197 -70 253 -82 25 -5 58 -19 74 -31 26 -18 37 -20 105 -14 42 4 93 9 114 11
21 2 55 15 75 29 65 45 177 152 196 188 18 33 17 68 -1 68 -4 0 -42 -32 -83
-71 -59 -58 -138 -110 -170 -114 -3 0 -9 -3 -15 -6 -27 -16 -108 -31 -137 -26
-217 38 -326 78 -460 168 -145 99 -225 242 -244 439 -7 74 15 201 45 263 14
27 15 37 6 37 -8 0 -20 2 -27 5 -8 3 -23 -5 -35 -17z"/>
<path d="M3552 5341 c2 -9 22 -19 52 -25 27 -6 51 -16 53 -22 2 -6 -8 -22 -23
-37 -69 -69 -62 -229 14 -317 43 -50 123 -90 181 -90 95 0 278 68 287 107 9
33 -3 43 -44 37 -44 -7 -40 -7 -72 -5 -28 1 -84 47 -75 62 4 5 1 9 -4 9 -6 0
-11 8 -11 18 0 9 -7 30 -15 45 -8 15 -16 54 -19 85 l-4 58 56 -7 c70 -8 139
-29 214 -63 31 -14 63 -26 70 -26 23 0 217 -99 283 -144 33 -22 75 -57 94 -78
19 -21 43 -38 53 -38 10 0 18 -4 18 -10 0 -12 30 -13 50 0 12 8 12 12 0 36
-24 44 -111 125 -170 159 -30 17 -64 37 -75 43 -31 18 -215 102 -270 124 -118
47 -358 89 -528 92 -101 2 -117 0 -115 -13z"/>
<path d="M6117 5113 c-9 -15 -20 -149 -17 -208 1 -33 3 -84 5 -113 3 -69 27
-103 75 -104 19 -1 45 -8 57 -15 25 -17 124 -21 191 -8 29 5 42 4 42 -4 0 -6
-12 -12 -27 -12 -39 -2 39 -18 142 -29 114 -12 413 -12 458 1 46 12 170 -13
203 -42 22 -21 44 -25 44 -9 0 6 -4 10 -9 10 -4 0 -20 12 -35 26 -14 15 -46
36 -70 48 -39 19 -54 20 -137 14 -52 -3 -168 -7 -258 -7 -152 -1 -163 0 -156
17 4 9 10 63 13 120 l5 102 32 0 32 0 2 -77 c3 -122 15 -167 37 -132 3 6 6 53
6 105 l-1 94 92 2 c281 6 315 3 342 -22 29 -27 79 -127 90 -179 4 -18 18 -57
31 -87 13 -30 22 -54 19 -54 -2 0 1 -14 7 -31 6 -17 16 -29 25 -27 8 2 14 6
14 11 -1 4 -1 19 -1 33 0 14 -4 22 -10 19 -5 -3 -7 0 -4 8 3 8 1 18 -5 22 -6
3 -11 24 -11 45 0 21 -4 40 -9 42 -6 2 -11 15 -13 30 -2 15 -7 30 -11 34 -4 4
-7 13 -7 21 0 7 -14 42 -31 78 -46 94 -87 120 -193 121 -45 0 -94 4 -109 9
-21 5 -44 1 -91 -19 l-63 -27 -84 15 c-46 8 -95 18 -109 22 -14 3 -38 8 -55
11 -16 3 -35 9 -40 14 -6 4 -22 10 -35 13 -14 2 -58 16 -97 30 -40 14 -78 26
-85 26 -6 0 -19 7 -29 16 -9 8 -27 16 -40 17 -13 2 -38 10 -56 20 -34 18 -59
22 -66 10z m243 -244 c0 -44 -4 -68 -10 -64 -18 11 -12 135 7 135 2 0 3 -32 3
-71z m143 -186 c5 -9 3 -13 -7 -13 -14 0 -16 19 -14 138 l2 137 5 -125 c3 -69
10 -131 14 -137z m83 112 c0 -66 -1 -123 -3 -127 -2 -4 -10 -5 -18 -1 -12 4
-15 29 -15 130 0 113 2 124 18 121 15 -3 17 -17 18 -123z m-228 -91 c-10 -10
-28 6 -28 24 0 15 1 15 17 -1 9 -9 14 -19 11 -23z"/>
<path d="M1574 5012 c-57 -9 -205 -252 -154 -252 5 0 34 38 65 85 31 46 61 88
68 92 7 4 48 13 92 18 71 9 80 12 83 32 3 21 0 23 -57 22 -33 -1 -63 1 -68 3
-4 2 -18 2 -29 0z"/>
<path d="M7407 4402 c-16 -42 -53 -120 -82 -172 -29 -52 -91 -169 -138 -260
-82 -157 -114 -216 -200 -363 -21 -36 -40 -74 -42 -85 -8 -43 -153 -292 -175
-300 -4 -2 -5 -141 -3 -310 7 -444 -10 -549 -125 -777 -90 -178 -269 -380
-551 -622 -36 -32 -111 -100 -166 -153 -200 -190 -379 -355 -408 -377 -16 -12
-38 -36 -48 -53 -11 -17 -27 -30 -39 -30 -25 0 -60 -29 -60 -50 0 -12 -2 -12
-9 -2 -7 11 -9 11 -14 -1 -6 -15 -91 -77 -107 -77 -5 0 -14 17 -20 38 -24 71
-49 117 -85 155 -20 20 -41 37 -48 37 -19 -1 -40 -22 -61 -60 -24 -42 -25 -43
-73 -99 l-38 -43 -12 28 c-7 16 -12 47 -13 68 0 48 -19 106 -40 123 -8 8 -41
13 -75 13 -60 -1 -111 4 -175 15 -240 42 -386 85 -508 147 -53 27 -102 54
-109 60 -16 13 -36 0 -29 -19 3 -8 2 -12 -3 -9 -5 3 -9 -4 -9 -17 -1 -71 -59
-278 -61 -219 -1 12 -5 30 -10 40 -4 9 -26 53 -47 97 -21 43 -49 94 -61 113
-13 18 -23 37 -23 42 0 17 -53 50 -81 50 -46 0 -109 -98 -109 -170 0 -22 -3
-40 -7 -40 -60 3 -198 210 -302 453 -18 44 -22 47 -56 47 -37 0 -89 -23 -158
-68 -45 -30 -41 -33 -103 71 -48 81 -68 101 -96 93 -67 -19 -93 -117 -76 -286
13 -127 45 -302 56 -309 5 -3 11 -15 13 -26 9 -45 42 -14 152 140 10 14 22 23
26 21 4 -3 8 -45 8 -93 1 -68 11 -125 43 -248 37 -144 55 -197 96 -292 8 -17
14 -34 14 -38 0 -4 11 -16 25 -27 14 -11 25 -28 25 -38 0 -9 7 -23 16 -31 9
-8 13 -21 10 -35 -4 -14 -1 -24 8 -27 8 -3 17 -21 21 -39 4 -18 13 -40 21 -48
7 -9 20 -36 29 -60 14 -38 49 -94 80 -126 44 -44 78 -8 101 109 9 48 20 84 24
80 4 -4 13 -29 20 -55 12 -47 57 -108 78 -108 25 0 10 -28 -43 -80 -30 -30
-55 -62 -55 -71 0 -10 -6 -20 -12 -22 -7 -3 564 -6 1270 -6 705 -1 1282 0
1282 2 0 5 -118 262 -178 390 -59 122 -74 141 -100 115 -13 -13 -82 -1 -188
34 l-62 20 -7 107 c-3 60 -4 125 0 147 13 80 17 93 25 91 4 -1 36 23 70 53 33
30 87 78 118 106 31 28 93 82 137 119 197 169 261 228 423 389 193 191 287
296 379 424 74 104 92 151 132 342 39 191 53 505 28 640 -32 170 -34 151 25
232 82 113 98 139 239 404 73 137 144 265 159 284 15 19 61 105 101 190 72
152 74 157 77 245 6 147 1 156 -31 67z m-2447 -4352 c0 -5 -5 -10 -11 -10 -5
0 -7 5 -4 10 3 6 8 10 11 10 2 0 4 -4 4 -10z"/>
<path d="M6045 4313 c-56 -5 -78 -20 -95 -66 -7 -18 -19 -47 -27 -66 -31 -71
-53 -214 -49 -327 3 -104 25 -206 47 -220 5 -3 9 -14 9 -25 0 -11 7 -22 15
-25 8 -4 15 -11 15 -18 0 -13 94 -114 130 -139 27 -19 50 -22 50 -7 0 5 -21
32 -47 61 -52 55 -103 128 -103 145 0 5 -5 15 -12 22 -6 6 -13 17 -14 24 -1 7
-10 42 -19 78 -27 102 -5 322 42 417 17 36 65 74 78 62 3 -4 1 -26 -4 -50 -27
-119 -31 -153 -21 -159 6 -4 10 -20 10 -36 -2 -33 16 -107 31 -137 20 -36 63
-78 76 -73 7 3 20 -5 28 -18 17 -26 66 -40 93 -27 9 4 40 19 67 32 69 33 95
64 95 115 0 47 -14 64 -52 64 -19 0 -28 5 -28 16 0 8 -7 22 -15 30 -8 9 -20
35 -26 60 -6 24 -15 41 -20 39 -7 -5 -3 52 7 83 9 29 107 5 229 -56 68 -34
110 -65 198 -145 42 -37 87 -70 101 -73 26 -4 36 9 16 21 -5 3 -10 13 -10 21
0 21 -60 98 -96 123 -16 11 -40 30 -52 41 -27 26 -219 122 -310 157 -137 51
-218 65 -337 56z"/>
<path d="M2433 3403 c-18 -7 -16 -37 6 -86 10 -23 35 -80 56 -127 67 -150 134
-242 299 -405 155 -153 217 -212 321 -300 33 -27 80 -68 105 -90 26 -22 70
-58 99 -80 29 -22 81 -64 116 -92 36 -29 67 -53 71 -53 4 0 22 -11 41 -26 35
-27 94 -54 115 -54 7 0 4 6 -7 12 -11 6 -24 17 -28 25 -4 7 -15 13 -23 13 -8
0 -17 6 -20 14 -3 7 -22 22 -42 32 -20 11 -41 24 -47 30 -5 6 -41 35 -80 64
-81 63 -90 70 -169 142 -76 67 -360 350 -406 403 -127 146 -219 277 -278 395
-9 19 -20 37 -24 38 -5 2 -8 10 -8 18 0 41 -73 136 -97 127z"/>
<path d="M5657 3134 c-10 -33 -1 -174 11 -186 9 -9 10 1 5 40 -4 36 -2 52 6
52 6 0 11 10 11 23 0 18 -2 19 -11 7 -8 -11 -9 -6 -5 20 6 40 -8 76 -17 44z"/>
<path d="M1911 3100 c0 -14 3 -32 9 -40 6 -9 5 -17 -3 -22 -9 -5 -12 -63 -12
-205 -1 -109 1 -205 3 -214 3 -14 31 -23 33 -10 0 3 2 32 5 64 4 41 2 57 -6
57 -10 0 -10 3 -1 14 19 22 9 300 -12 346 -14 32 -15 33 -16 10z"/>
<path d="M7396 2912 c-135 -728 -160 -950 -160 -1457 -1 -286 2 -336 22 -470
35 -223 56 -312 119 -505 l58 -175 3 708 c1 390 1 1023 0 1408 l-3 699 -39
-208z"/>
<path d="M4630 3068 c-70 -76 -64 -292 8 -316 7 -2 12 7 12 22 0 56 79 11 141
-80 63 -94 130 -171 177 -207 94 -71 111 -80 127 -67 12 10 12 15 -3 36 -9 13
-20 24 -25 24 -4 0 -49 41 -101 90 -66 64 -101 107 -121 148 -47 97 -102 143
-176 144 l-39 0 0 53 c0 29 7 70 16 91 16 38 26 94 17 94 -2 0 -17 -14 -33
-32z"/>
<path d="M1847 2917 c-3 -8 -1 -20 4 -28 6 -10 9 -7 9 14 0 29 -5 35 -13 14z"/>
<path d="M1990 2907 c0 -16 4 -26 10 -22 6 3 10 -4 10 -17 0 -17 -3 -19 -9 -9
-15 23 -22 -4 -12 -47 1 -2 9 4 18 14 20 19 18 58 -3 88 -13 20 -14 19 -14 -7z"/>
<path d="M5651 2883 c0 -27 3 -41 6 -33 3 8 11 18 17 22 8 5 8 10 -1 19 -6 6
-9 18 -6 25 3 8 0 14 -6 14 -7 0 -11 -19 -10 -47z"/>
<path d="M1855 2830 c-7 -12 2 -30 16 -30 12 0 12 27 0 35 -5 3 -12 1 -16 -5z"/>
<path d="M5657 2801 c-3 -11 -2 -22 1 -25 8 -9 32 14 32 30 0 21 -27 17 -33
-5z"/>
<path d="M2000 2800 c-12 -7 -15 -34 -15 -132 0 -68 2 -148 6 -178 l6 -55 2
45 c1 33 4 41 11 30 7 -10 10 21 10 97 0 68 -4 114 -11 118 -6 5 -4 11 7 19
17 13 11 41 -7 31 -13 -9 -11 9 3 23 14 14 9 15 -12 2z"/>
<path d="M2079 2698 c-3 -231 3 -372 17 -385 11 -12 14 -10 19 9 3 13 7 100 9
195 3 150 1 177 -15 212 -10 23 -20 41 -24 41 -3 0 -5 -33 -6 -72z"/>
<path d="M1862 2740 c0 -14 2 -19 5 -12 2 6 2 18 0 25 -3 6 -5 1 -5 -13z"/>
<path d="M5645 2699 c-4 -22 -4 -43 -1 -46 3 -4 6 6 6 21 0 15 4 25 9 22 5 -3
11 5 13 19 4 16 1 25 -8 25 -7 0 -15 -18 -19 -41z"/>
<path d="M1840 2700 c0 -5 9 -10 21 -10 11 0 17 5 14 10 -3 6 -13 10 -21 10
-8 0 -14 -4 -14 -10z"/>
<path d="M2210 2503 c0 -13 5 -23 10 -23 6 0 10 -9 10 -21 0 -11 -4 -17 -11
-14 -7 5 -9 -11 -7 -46 2 -40 7 -53 20 -55 25 -3 23 98 -2 146 -16 30 -19 32
-20 13z"/>
<path d="M5585 2509 c-10 -15 3 -25 16 -12 7 7 7 13 1 17 -6 3 -14 1 -17 -5z"/>
<path d="M5530 2460 c0 -5 5 -10 10 -10 6 0 10 5 10 10 0 6 -4 10 -10 10 -5 0
-10 -4 -10 -10z"/>
<path d="M2206 2322 c-8 -14 9 -67 23 -70 10 -2 12 4 7 25 -4 15 -7 34 -8 41
-1 13 -14 16 -22 4z"/>
<path d="M2443 2140 c1 -33 5 -60 9 -60 4 0 8 9 8 20 0 11 5 20 10 20 16 0 11
30 -9 56 l-19 24 1 -60z"/>
<path d="M2553 2029 c4 -13 7 -30 7 -36 0 -18 17 -16 24 3 3 8 2 12 -4 9 -6
-3 -10 3 -10 14 0 11 -5 23 -12 27 -8 5 -9 0 -5 -17z"/>
<path d="M2664 1905 c2 -22 3 -57 4 -78 2 -35 3 -37 18 -23 8 9 12 20 9 26 -3
5 -1 10 4 10 19 0 11 44 -13 75 l-24 30 2 -40z"/>
<path d="M2581 1874 c0 -11 3 -14 6 -6 3 7 2 16 -1 19 -3 4 -6 -2 -5 -13z"/>
</g>
</svg>
